<svg xmlns="http://www.w3.org/2000/svg" width="400" height="397.668"><g fill-rule="evenodd"><path fill="#151866" d="M176.517.395c-1.094.182-4.084.347-6.643.366s-4.748.188-4.863.375-2.12.438-4.453.557-4.354.387-4.49.594c-.136.208-1.757.492-3.603.631s-3.539.435-3.762.657-1.14.405-2.04.405c-.899 0-1.983.263-2.408.584-.431.327-1.651.591-2.762.6-1.095.008-2.504.283-3.131.61s-1.533.594-2.013.594-1.221.263-1.646.585-1.432.59-2.237.597c-.805.006-1.733.281-2.061.609-.328.329-1.057.597-1.62.597-.645 0-1.024.221-1.024.597 0 .457-.504.597-2.146.597-1.541 0-2.211.169-2.376.597-.126.329-.688.597-1.249.597s-1.123.269-1.249.597c-.161.419-.814.597-2.189.597s-2.028.178-2.189.597c-.126.329-.556.597-.954.597-.399 0-.994.269-1.322.597-.329.329-1.153.597-1.832.597-.731 0-1.329.244-1.464.597-.126.329-.568.597-.983.597-.414 0-.753.269-.753.597 0 .429-.438.597-1.55.597-1.01 0-1.629.208-1.778.597-.126.329-.583.597-1.014.597s-.888.166-1.012.368c-.125.202-.763.485-1.417.628s-1.189.412-1.189.596c0 .185-.538.453-1.195.598-.656.144-1.194.412-1.194.597 0 .184-.537.452-1.194.597s-1.195.382-1.197.529c-.002.146-.804.618-1.781 1.048-.978.429-1.866 1.012-1.974 1.293-.108.282-.631.513-1.162.513s-1.068.268-1.194.597-.593.597-1.037.597c-.445 0-.809.188-.809.418 0 .231-.537.606-1.194.835s-1.194.578-1.194.776c0 .197-.269.359-.597.359a.6.6 0 0 0-.597.597c0 .373-.377.597-1.007.597-.555 0-1.111.268-1.237.597s-.479.597-.784.597c-.304 0-.554.268-.554.597 0 .373-.377.597-1.007.597-.555 0-1.111.268-1.237.597s-.479.597-.784.597-.554.268-.554.597-.256.597-.568.597c-.313 0-.902.403-1.311.895-.833 1.005-3.184 2.37-3.372 1.959-.257-.562-2.989-1.635-4.799-1.886-1.04-.145-1.89-.421-1.89-.615 0-.623-7.35-.416-8.612.241-.627.327-1.622.596-2.211.597s-1.173.168-1.298.37-.762.485-1.416.629-1.191.381-1.192.528c-.002.147-.674.706-1.493 1.244-1.636 1.072-4.475 3.867-4.475 4.405 0 .187-.537.928-1.194 1.647-.733.803-1.194 1.739-1.194 2.425 0 .627-.262 1.219-.597 1.347-.328.126-.603.703-.61 1.281-.007.579-.275 1.4-.597 1.825-.845 1.118-.835 9.467.013 10.315.328.328.597 1.038.597 1.578 0 .539.269 1.084.597 1.21.376.144.597.753.597 1.647 0 .893.221 1.502.597 1.647.328.126.597.478.597.783s.269.555.597.555c.336 0 .597.355.597.811 0 .995 3.641 4.66 4.957 4.991.526.132 1.053.492 1.171.801.118.308.65.561 1.18.561.531 0 1.068.269 1.194.597.176.457.927.597 3.203.597 1.636 0 3.071.156 3.189.347.437.707 2.723.853 3.93.251.659-.329 2.233-.598 3.497-.598 1.513 0 2.503-.204 2.896-.597.328-.328.974-.597 1.434-.597s.94-.269 1.066-.597.538-.597.915-.597c.743 0 5.995-4.862 5.995-5.55 0-.231.182-.42.403-.42s.872-1.03 1.444-2.289c.573-1.259 1.197-2.348 1.388-2.421s.347-3.134.347-6.802c0-6.515.021-6.68.896-7.128 1.118-.573 2.424-1.39 2.686-1.68.11-.121.916-.648 1.791-1.171.876-.523 1.987-1.364 2.469-1.869.482-.506 1.249-.919 1.704-.919s.924-.252 1.043-.561.65-.67 1.181-.804c.532-.133.966-.418.966-.633 0-.214.352-.39.783-.39.43 0 1.332-.537 2.003-1.194.69-.674 1.65-1.194 2.203-1.194.607 0 .982-.228.982-.597 0-.373.377-.597 1.007-.597.554 0 1.111-.269 1.237-.597s.663-.597 1.194-.597 1.068-.269 1.194-.597.484-.597.796-.597.67-.269.796-.597c.139-.363.741-.597 1.537-.597s1.397-.234 1.537-.597c.126-.328.582-.597 1.014-.597s.887-.165 1.012-.368.762-.484 1.416-.628c.655-.144 1.19-.426 1.19-.628 0-.201.313-.367.696-.369.383-.001 1.21-.27 1.837-.597s1.366-.594 1.643-.594.726-.269.998-.597c.273-.329.977-.597 1.565-.597s1.417-.263 1.842-.585c.424-.321 1.064-.59 1.42-.597s.871-.281 1.143-.609c.277-.333 1.144-.597 1.963-.597.807 0 1.815-.263 2.24-.585s1.064-.59 1.42-.597.871-.281 1.143-.609c.326-.392 1.214-.597 2.587-.597s2.262-.205 2.587-.597c.273-.329.927-.597 1.455-.597.527 0 1.062-.269 1.188-.597.17-.445.88-.597 2.786-.597 1.905 0 2.615-.152 2.786-.597.127-.332.719-.597 1.332-.597.606 0 1.325-.269 1.598-.597.367-.443 1.346-.597 3.781-.597s3.414-.155 3.781-.598c.325-.392 1.213-.597 2.587-.597s2.262-.204 2.587-.597c.75-.903 48.863-.903 49.209 0 .164.427.83.597 2.333.597s2.17.171 2.333.597c.182.474 1.019.598 4.036.598s3.853.123 4.035.597c.148.385.763.597 1.736.597.972 0 1.588.211 1.736.597.171.447.888.597 2.857.597 1.805 0 2.815.186 3.225.597.328.328 1.192.597 1.919.597.808 0 1.411.232 1.551.597.16.418.813.597 2.183.597 1.251 0 2.132.214 2.449.597.273.328.787.602 1.143.609.357.007.996.276 1.421.597.425.322 1.525.585 2.445.585 1.119 0 1.748.197 1.901.597.126.328.668.597 1.204.597s1.035.183 1.11.407c.074.224.849.523 1.721.665.872.141 1.824.495 2.115.786s.875.53 1.297.53.767.163.767.363.717.484 1.592.632 1.593.418 1.593.6.535.449 1.189.593 1.292.426 1.417.628c.124.203.664.368 1.198.368.598 0 .972.229.972.597 0 .418.421.597 1.406.597 1.038 0 1.712.313 2.574 1.194.642.657 1.537 1.194 1.989 1.194s.925.269 1.051.597.574.597.995.597.869.269.995.597c.131.34.724.597 1.38.597.759 0 1.152.204 1.152.597 0 .328.247.597.548.597s.771.269 1.044.597c.272.328.832.597 1.243.597s.747.188.747.419.537.606 1.194.835 1.194.578 1.194.775.269.359.597.359.597.162.597.359c0 .198.493.541 1.095.763s1.615.867 2.251 1.432c.636.566 1.332 1.028 1.546 1.028s.769.403 1.232.896c.463.492 1.6 1.253 2.528 1.691s1.689 1.02 1.692 1.294c.002.273.262.497.577.497s1.161.538 1.88 1.194c.719.657 1.536 1.194 1.815 1.194.295 0 .508.482.508 1.146 0 .63.269 1.368.597 1.64.329.273.598.705.598.96 0 2.005 3.509 6.18 6.523 7.761 2.598 1.362 10.591 1.915 10.591.732 0-.273.472-.525 1.047-.558.576-.033 1.16-.243 1.297-.466.138-.223.742-.528 1.342-.679.599-.15 1.09-.443 1.09-.65s.537-.949 1.192-1.648c.656-.7 1.193-1.527 1.194-1.838s.255-.849.564-1.194c1.014-1.133 1.042-9.515.035-10.522-.328-.328-.597-.974-.597-1.434s-.269-.94-.597-1.066-.597-.478-.597-.783-.269-.555-.597-.555a.6.6 0 0 1-.597-.597.6.6 0 0 0-.597-.597c-.328 0-.597-.164-.597-.365 0-.575-2.579-2.022-3.629-2.036-.521-.007-1.296-.275-1.721-.597-.492-.372-1.695-.584-3.313-.584-2.397 0-5.501-1.606-7.655-3.961-.544-.595-3.967-2.805-4.344-2.805-.238 0-.432-.269-.432-.597 0-.329-.25-.597-.555-.597s-.657-.269-.783-.597c-.126-.329-.653-.597-1.171-.597-.545 0-1.391-.504-2.006-1.194-.585-.657-1.421-1.194-1.857-1.194s-.793-.184-.793-.408-.447-.578-.995-.786c-.547-.208-.995-.562-.995-.786 0-.225-.358-.408-.796-.408s-.796-.176-.796-.391c0-.214-.435-.499-.966-.633-.531-.133-1.063-.495-1.182-.803-.118-.309-.668-.561-1.222-.561s-1.01-.224-1.012-.498-.764-.83-1.692-1.237-1.956-.892-2.284-1.077c-.702-.395-4.764-2.381-8.191-4.003-1.33-.63-2.789-1.146-3.241-1.146s-.924-.268-1.05-.597-.683-.597-1.237-.597c-.63 0-1.007-.223-1.007-.597 0-.432-.444-.597-1.605-.597-1.059 0-1.682-.203-1.834-.597-.126-.328-.663-.597-1.194-.597s-1.068-.268-1.194-.597c-.147-.385-.763-.597-1.736-.597-.972 0-1.588-.211-1.736-.597-.126-.328-.605-.597-1.066-.597-.46 0-1.105-.268-1.433-.597-.37-.369-1.346-.597-2.559-.597-1.478 0-1.962-.147-1.962-.597 0-.376-.379-.597-1.023-.597-.563 0-1.292-.268-1.621-.597-.353-.354-1.326-.597-2.388-.597s-2.034-.243-2.388-.597c-.328-.328-1.196-.597-1.928-.597-.733 0-1.402-.21-1.487-.466-.087-.262-1.234-.545-2.611-.645-1.405-.101-2.65-.412-2.911-.727-.251-.302-1.163-.55-2.026-.55s-1.907-.181-2.32-.401-2.147-.514-3.854-.652c-1.707-.137-3.31-.411-3.561-.608-.436-.342-4.373-.737-15.265-1.531-7.091-.517-27.687-.786-30.05-.393M65.174 51.43c.493.245.896.684.896.976s.224.531.497.532c2.112.014 1.977 5.233-.199 7.664-1.67 1.867-6.667 2.974-6.667 1.478 0-.225-.447-.578-.995-.786-.547-.209-.995-.562-.995-.787s-.268-.407-.597-.407c-.347 0-.597-.362-.597-.865 0-.475-.309-1.206-.688-1.624-.652-.721-.652-.781 0-1.146.379-.212.688-.784.688-1.272 0-.487.538-1.475 1.194-2.194.657-.719 1.194-1.462 1.194-1.651 0-.757 4.708-.696 6.269.082M240.1 56.78c-.712.102-1.294.354-1.294.559s-1.5.372-3.334.372c-2.479 0-3.462.154-3.83.597-.273.329-1.106.597-1.852.597-.839 0-1.445.228-1.586.597-.139.363-.741.598-1.531.598-.716 0-1.525.268-1.797.597-.273.328-.743.597-1.044.597s-.548.268-.548.597c0 .373-.378.597-1.008.597-.554 0-1.111.268-1.237.597s-.478.597-.783.597-.555.183-.555.407c0 .225-.447.579-.995.787-.547.208-.995.561-.995.786s-.268.408-.597.408a.6.6 0 0 0-.597.597.6.6 0 0 1-.597.597.6.6 0 0 0-.597.597.6.6 0 0 1-.597.597c-.328 0-.604.224-.614.497-.009.274-.546.937-1.194 1.474s-1.177 1.279-1.177 1.649-.268.776-.597.902-.597.484-.597.796-.268.67-.597.796-.597.574-.597.995-.268.869-.597.995-.597.571-.597.989-.268.982-.597 1.255-.597.906-.597 1.409c0 .502-.217.985-.482 1.074-.269.089-.608 1.296-.764 2.719-.155 1.408-.477 3.464-.715 4.569-.669 3.099-.405 177.475.27 178.149.273.274.497 1.336.497 2.36 0 1.169.222 2.046.597 2.357.329.272.597.736.597 1.031 0 .658 1.539 3.665 2.031 3.969.197.122.357.498.357.837s.538 1.294 1.194 2.123c.657.829 1.194 1.672 1.194 1.873s.538.881 1.194 1.51c.657.629 1.194 1.297 1.194 1.485 0 .187 1.03 1.362 2.289 2.611l2.288 2.27.136 16.319c.171 20.496-.031 24.182-1.365 24.896-.528.283-.96.733-.96 1 0 .268-.445.599-.989.735-.6.151-1.083.627-1.23 1.211-.139.555-.69 1.124-1.3 1.344-.582.21-1.453.759-1.937 1.22-.483.462-1.065.839-1.293.839a.413.413 0 0 0-.415.408c0 .225-.448.578-.995.786s-.995.562-.995.787-.248.407-.551.407-.853.46-1.221 1.022-1.015 1.368-1.439 1.791c-.5.5-.769 1.318-.769 2.338 0 .863-.179 1.679-.398 1.815-.519.32-.519 5.649 0 5.97.219.135.398.853.398 1.596 0 .742.226 1.493.501 1.668.276.175.931.961 1.457 1.747 1.118 1.671 3.122 3.148 4.274 3.148.446 0 1.389.289 2.096.641 1.429.714 6.239.64 6.724-.103.149-.228.922-.517 1.717-.643 1.958-.309 4.171-2.461 5.478-5.329.215-.471.591-.98.835-1.132.3-.185.409-1.959.335-5.452-.095-4.517-.022-5.242.575-5.679.377-.275.685-.628.685-.783 0-.33 1.037-1.42 1.351-1.42.378 0 3.027-2.799 3.027-3.198 0-.211.268-.385.597-.385.393 0 .597-.393.597-1.151 0-.656.257-1.25.597-1.381.519-.199.597-2.72.597-19.346v-19.117h.946c.521 0 1.169.269 1.442.597.331.399 1.225.597 2.691.597 3.294 0 3.252-.136 3.266 10.461.011 7.684.104 9.102.61 9.296.37.142.597.748.597 1.592s.227 1.45.597 1.592c.328.126.597.385.597.576 0 .507 4.058 4.539 4.885 4.854.388.147.822.572.964.943.329.858 1.59 2.129 2.111 2.129.219 0 .398.269.398.597 0 .329.269.597.597.597.329 0 .597.169.597.375 0 .669 3.842 4.401 4.53 4.401.368 0 .773.269.899.597.126.329.456.597.734.597.279 0 .729.269 1.002.597.374.451 1.385.598 4.128.599 3.592.001 3.642.014 4.429 1.192.438.656.93 1.193 1.094 1.193.164.001.299.255.299.564 0 1.051 4.298 4.906 5.78 5.184.761.143 1.384.431 1.384.64s.582.385 1.294.392c.711.007 1.641.276 2.066.597.995.753 3.827.753 4.823 0 .425-.321 1.533-.59 2.464-.597.93-.007 1.691-.188 1.691-.403s.474-.509 1.053-.654 1.359-.552 1.734-.904a39 39 0 0 1 1.932-1.629c.688-.545 1.251-1.217 1.251-1.493s.164-.501.363-.501c.75 0 2.026-3.448 2.026-5.476 0-1.122.179-2.15.398-2.286.218-.135.398-1.12.398-2.189s-.18-2.054-.398-2.189-.398-1.054-.398-2.042c0-1.066-.243-2.038-.598-2.393-.328-.328-.597-.942-.597-1.364s-.268-.768-.597-.768-.597-.179-.597-.398c0-.516-1.473-1.99-1.99-1.99-.219 0-.399-.134-.4-.299-.005-.525-2.604-2.089-3.472-2.089-.46 0-.9-.187-.976-.415-.206-.618-4.682-1.14-7.552-.879-3.169.287-5.738 1.56-8.281 4.103-1.832 1.831-2.104 1.967-3.952 1.967h-1.985l-4.8-4.736-4.801-4.736v-17.593h1.406c.882 0 1.491-.222 1.635-.597.13-.34.724-.597 1.38-.597.633 0 1.152-.159 1.152-.355s.463-.471 1.03-.613c.566-.142 1.507-.701 2.089-1.241s1.418-1.096 1.856-1.233c.438-.138 1.19-.673 1.672-1.19s.967-.94 1.078-.94c.395 0 9.787-9.735 9.787-10.144 0-.711 2.808-2.591 3.875-2.595.386-.001 1.18-.251 1.764-.556s1.792-.678 2.685-.828c.892-.151 1.723-.438 1.847-.638s.559-.363.968-.363c.41 0 1.013-.269 1.342-.597.328-.329.973-.597 1.433-.597s.941-.269 1.067-.597c.126-.329.555-.597.954-.597s.964-.224 1.257-.498c.292-.273 1.221-.85 2.064-1.281s1.621-1.014 1.728-1.294c.108-.28.495-.509.86-.509.366 0 1.254-.538 1.973-1.194.719-.657 1.475-1.194 1.68-1.194.206 0 .374-.269.374-.597 0-.329.268-.597.597-.597a.6.6 0 0 0 .597-.597c0-.329.179-.597.398-.597.386 0 1.99-1.421 1.99-1.763 0-.094.649-.855 1.443-1.692.794-.836 1.617-2.013 1.83-2.615s.548-1.095.746-1.095.359-.339.359-.753.269-.857.597-.983.597-.573.597-.995c0-.421.269-.869.597-.995s.597-.593.597-1.037c0-.454.262-.809.597-.809.393 0 .597-.393.597-1.151 0-.657.257-1.25.597-1.381.328-.126.597-.663.597-1.194s.269-1.068.597-1.194c.424-.163.601-.838.61-2.331.007-1.214.259-2.429.597-2.875.371-.49.584-1.693.584-3.296 0-1.876.153-2.582.597-2.752.328-.126.597-.479.597-.784 0-.319.404-.554.953-.554.523 0 1.055-.269 1.181-.597.126-.329.484-.597.796-.597s.67-.269.796-.597c.126-.329.492-.597.814-.597s1.173-.538 1.892-1.194c.719-.657 1.626-1.194 2.015-1.194s.707-.269.707-.597c0-.329.269-.597.597-.597a.6.6 0 0 0 .597-.597c0-.329.265-.597.589-.597.702 0 7.77-6.813 7.77-7.49 0-.259.183-.471.407-.471.225 0 .583-.403.796-.895.398-.922 1.231-2.335 1.583-2.687.318-.318 1.177-1.737 1.445-2.388.135-.328.76-1.686 1.39-3.016s1.145-2.993 1.145-3.694c0-.766.238-1.366.597-1.504.333-.128.597-.719.597-1.338 0-.618.264-1.21.597-1.338.512-.196.597-1.881.597-11.796s-.085-11.6-.597-11.797c-.391-.149-.597-.769-.597-1.791s-.207-1.641-.597-1.791c-.406-.155-.597-.79-.597-1.977 0-.962-.176-1.749-.391-1.749-.214 0-.507-.468-.651-1.039-.143-.572-.868-2.139-1.611-3.483s-1.542-2.935-1.776-3.537-.609-1.095-.833-1.095c-.233 0-.188-.265.105-.618.528-.636.905-2.29 1.629-7.143.525-3.524.23-15.597-.398-16.224-.249-.249-.452-1.121-.452-1.937s-.269-1.752-.597-2.081c-.332-.332-.597-1.304-.597-2.189 0-.876-.239-1.83-.53-2.122s-.653-1.02-.804-1.62c-.15-.6-.449-1.091-.664-1.091s-.39-.345-.39-.767-.269-1.037-.597-1.365c-.329-.328-.597-.789-.597-1.024s-.269-.426-.597-.426c-.374 0-.598-.377-.598-1.007 0-.555-.268-1.111-.597-1.237s-.597-.479-.597-.784a.555.555 0 0 0-.553-.554c-.305 0-.666-.445-.802-.989a1.7 1.7 0 0 0-1.238-1.237c-.634-.159-.989-.529-.989-1.033 0-.761-2.811-3.905-3.492-3.905-.186 0-.854-.538-1.483-1.194-.629-.657-1.379-1.194-1.666-1.194-.288 0-.523-.139-.523-.308s-.657-.661-1.461-1.094c-2.919-1.572-4.111-3.129-4.111-5.37 0-1.419-.175-2.077-.597-2.239-.328-.126-.597-.663-.597-1.194s-.269-1.068-.597-1.194c-.402-.154-.597-.785-.597-1.935s-.195-1.78-.597-1.935c-.328-.126-.597-.598-.597-1.05 0-.451-.269-.924-.597-1.05s-.597-.658-.597-1.181c0-.582-.233-.953-.597-.953-.374 0-.597-.377-.597-1.007 0-.554-.269-1.111-.597-1.237s-.597-.479-.597-.783-.179-.555-.398-.555-.398-.25-.398-.556c0-1.247-7.495-8.996-8.701-8.996-.491 0-.851-.252-.851-.597a.6.6 0 0 0-.597-.597c-.329 0-.597-.16-.597-.355s-.403-.458-.896-.585c-.492-.126-1.349-.653-1.902-1.172-.554-.518-1.494-1.064-2.09-1.214s-1.083-.447-1.083-.662-.518-.39-1.151-.39c-.656 0-1.25-.257-1.381-.597-.144-.376-.753-.597-1.647-.597-.893 0-1.502-.221-1.647-.597-.151-.395-.788-.602-1.878-.61-.907-.007-1.996-.276-2.421-.597-.449-.339-1.638-.584-2.837-.584-1.35 0-2.236-.207-2.56-.597-.406-.49-1.767-.597-7.568-.597-5.92 0-7.11-.098-7.302-.597-.126-.329-.482-.597-.79-.597s-.784-.269-1.056-.597c-.273-.329-.762-.597-1.086-.597s-1.269-.538-2.098-1.194c-.83-.657-1.988-1.194-2.574-1.194s-1.334-.269-1.662-.598c-.329-.328-1.1-.597-1.714-.597-.615 0-1.34-.268-1.613-.597-.35-.421-1.276-.597-3.153-.597-1.462 0-2.855-.197-3.097-.439-.467-.467-6.202-.803-8.376-.492m7.86 16.255c.931.328 2.073.599 2.538.602.737.004 2.029.593 6.662 3.033 2.714 1.43 7.059 6.518 8.339 9.765.46 1.166.982 2.3 1.162 2.519 1.183 1.449 1.343 8.475.345 15.134-1.005 6.705 4.542 11.091 9.733 7.696 4.327-2.83 6.107-23.241 2.235-25.634-.202-.125-.368-.709-.369-1.298 0-.589-.369-1.675-.819-2.413-1.265-2.075-.841-2.525 2.11-2.234 3.643.359 6.261.924 8.064 1.741a179 179 0 0 0 3.284 1.438c.93.394 1.691.854 1.691 1.021 0 .168.423.454.94.636 2.899 1.024 8.819 7.323 10.597 11.277.246.548.782 1.622 1.192 2.388.41.767.864 2.11 1.009 2.986.145.875.516 2.359.825 3.297.717 2.178.721 6.333.008 8.529a275 275 0 0 0-1.26 4.032c-.389 1.28-.93 2.412-1.202 2.517s-.608.641-.747 1.194c-.138.552-2.313 3.035-4.833 5.518l-4.582 4.514.164 2.45c.318 4.772 5.366 7.757 9.667 5.715 3.548-1.683 10.595-10.185 12.887-15.549 1.31-3.063 2.054-3.613 3.497-2.585 1.409 1.003 5.669 5.537 5.669 6.033 0 .2.448.846.995 1.437.547.59.996 1.271.997 1.513s.55 1.514 1.22 2.827c2.515 4.928 2.481 17.257-.06 22.079-.638 1.21-1.16 2.336-1.161 2.502-.002.826-5.033 6.358-6.921 7.611-5.278 3.503-6.306 8.204-2.566 11.733 2.945 2.778 10.774 1.395 12.132-2.144.118-.306.556-.665.975-.798s.999-.697 1.291-1.254l.531-1.013.861 1.094c.473.601.86 1.366.86 1.698 0 .333.493 1.607 1.095 2.832 1.353 2.754 1.887 15.109.762 17.637-.32.719-.89 2.292-1.267 3.496s-.868 2.54-1.092 2.97c-1.719 3.306-2.411 4.396-4.18 6.583-2.364 2.921-7.777 7.561-8.821 7.561-.891 0-1.269-.483-2.174-2.786-.387-.985-.99-2.328-1.34-2.985-.349-.656-.999-1.91-1.445-2.786-3.62-7.113-10.838-14.527-14.142-14.527-6.31 0-8.43 6.896-3.75 12.2 7.915 8.969 9.439 12.673 9.393 22.825-.027 5.849-.511 8.812-1.853 11.343-.348.657-.635 1.446-.636 1.753-.005 1.053-5.102 8.195-7.429 10.409-3.7 3.521-10.995 7.937-13.11 7.937-.547 0-1.479.249-2.07.552s-2.456.857-4.144 1.23c-3.506.776-4.897 1.908-9.08 7.391-3.326 4.361-9.146 9.439-12.131 10.584-.522.201-.598-1.469-.613-13.445-.009-7.521-.171-14.391-.36-15.267s-.541-2.666-.783-3.98c-1.541-8.338-4.594-11.409-10.107-10.166-3.83.864-6.018 7.575-3.523 10.809 1.622 2.102 1.854 6.848 1.665 34.128l-.009 1.339-2.686-.227c-4.409-.372-6.559-.867-8.617-1.987-1.072-.583-2.123-1.06-2.335-1.06-.213 0-.998-.537-1.746-1.194s-1.492-1.194-1.654-1.194c-.816 0-5.588-6.338-6.842-9.087l-1.394-3.052-.113-25.041c-.064-14.012.04-25.194.235-25.39.201-.2 1.182-.054 2.303.342 3.244 1.147 16.228 1.041 19.567-.16 1.369-.493 2.858-.896 3.308-.896.451 0 1.794-.461 2.984-1.024 2.417-1.143 3.265-1.138 3.913.024.976 1.75 7.641 9.276 9.741 10.999 2.719 2.23 7.519 5.524 8.051 5.524.212 0 1.321.477 2.463 1.06 3.791 1.935 11.517 2.691 14.969 1.465 2.539-.902 3.298-2.041 3.531-5.298.357-4.984-1.958-7.42-7.608-8.003-4.382-.452-5.287-.692-8.219-2.173-5.293-2.673-13.983-13.333-11.562-14.182.515-.181 6.067-5.626 6.682-6.553 2.773-4.183 2.62-6.737-.577-9.594-3.248-2.902-7.394-2.145-11.228 2.05a63 63 0 0 1-3.194 3.184 108 108 0 0 0-2.786 2.647c-2.724 2.738-7.17 5.457-10.967 6.707-1.532.505-2.956 1.077-3.164 1.271-.643.602-14.912.423-16.736-.21-2.142-.743-1.991 3.232-2.105-55.421-.096-48.81.044-56.417 1.079-58.642 2.994-6.435 9.564-12.236 15.318-13.525 1.075-.24 2.24-.604 2.587-.807 1.042-.609 8.092-.466 9.986.203M20.55 88.638c-.154.153-1.476.403-2.938.554s-2.724.473-2.805.716c-.081.242-.603.44-1.161.44-1.094 0-3.696 1.424-3.696 2.023 0 .201-.179.365-.398.365-.396 0-1.99 1.424-1.99 1.778 0 .102-.537.735-1.194 1.406-.657.672-1.194 1.574-1.194 2.004s-.179.782-.398.782-.399.224-.4.498-.315 1.035-.697 1.692c-1.144 1.967-1.067 147.641.079 150.149.425.93.918 1.691 1.095 1.691s.321.371.321.825c0 .895 3.468 4.742 4.279 4.745.273.001.497.271.497.599 0 .329.339.597.754.597.414 0 .856.269.982.598s.574.597.995.597.869.268.995.597c.203.527 8.337.597 69.894.597h69.664v21.561l-1.262 1.757c-.693.966-1.41 1.756-1.592 1.756s-.33.348-.33.773-.207.9-.46 1.056q-.463.288-.134-.275c.179-.307-1.012.784-2.647 2.426-5.214 5.235-9.836 9.553-10.226 9.553-.208 0-.482.268-.608.597-.198.517-2.387.597-16.347.597h-16.117l-.466-.871c-.614-1.147-1.433-1.936-3.241-3.125-.82-.539-1.491-1.087-1.493-1.218-.019-1.663-13.574-2.707-14.729-1.135-.109.149-.558.383-.997.52-1.038.323-4.973 3.923-4.973 4.549 0 .266-.176.484-.39.484s-.5.434-.633.966c-.134.531-.495 1.063-.804 1.181-.857.329-.823 13.587.036 13.917.328.126.597.598.597 1.05s.269.924.597 1.05.597.479.597.784.269.554.597.554a.6.6 0 0 1 .597.597.6.6 0 0 0 .597.597.6.6 0 0 1 .597.597.6.6 0 0 0 .597.597c.328 0 .597.165.597.366 0 .202.522.482 1.161.622.638.14 1.259.512 1.38.827.329.856 11.071.834 11.93-.024.328-.328.872-.597 1.208-.597.337 0 1.162-.537 1.833-1.194.672-.657 1.303-1.194 1.403-1.194.332 0 1.782-1.367 1.782-1.68 0-.519 1.556-1.902 2.14-1.902.301 0 .771-.269 1.044-.597.427-.515 3.067-.597 19.271-.597h18.776l.976-1.177c.537-.648 1.201-1.185 1.474-1.194.274-.01.498-.196.498-.415 0-.516 1.474-1.99 1.99-1.99a.4.4 0 0 0 .398-.398c0-.516 1.474-1.99 1.99-1.99.219 0 .398-.19.398-.421 0-.232.806-1.216 1.791-2.187s1.791-2.016 1.791-2.322.445-.668.989-.804c.597-.15 1.084-.627 1.228-1.203a1.7 1.7 0 0 1 1.194-1.194c.577-.145 1.053-.631 1.203-1.229.137-.543.408-.989.603-.989.483 0 1.947-1.496 1.947-1.99 0-.218.354-.398.786-.398.47 0 1.033-.479 1.403-1.194s.933-1.194 1.403-1.194c.433 0 .786-.262.786-.583s.537-1.133 1.194-1.805l1.194-1.221v-14.036c0-10.386.124-14.16.478-14.514.348-.348 3.381-.477 11.157-.477 9.125 0 10.712-.087 10.908-.597.126-.329.518-.597.87-.597.824 0 2.458-1.893 2.458-2.848 0-.404.171-.735.38-.735 1.696 0 1.813-163.316.117-163.88-.273-.091-.497-.391-.497-.666 0-.667-2.267-2.698-3.947-3.537-1.413-.704-169.032-1.093-169.732-.393m330.395 2.572c-.821.445-1.492.97-1.492 1.167s-.179.359-.398.359c-.516 0-1.99 1.474-1.99 1.99 0 .219-.269.398-.597.398-.329 0-.597.25-.597.555s-.269.657-.597.783c-.391.15-.597.77-.597 1.791 0 1.022-.207 1.642-.597 1.791-.473.182-.597 1.013-.597 3.974 0 2.844.143 3.865.597 4.241.328.272.597.889.597 1.371 0 1.623 5.306 6.589 7.04 6.589 1.526 0 3.138 1.908 4.119 4.876.489 1.477 1.043 2.686 1.233 2.686.189 0 .344.812.344 1.804 0 1.236.188 1.875.597 2.032.328.126.597.546.597.934s.269.928.597 1.2c.337.28.597 1.147.597 1.99s.26 1.711.597 1.99c.328.273.597.909.597 1.414s.269 1.186.597 1.515c.375.374.597 1.353.597 2.628 0 1.438.174 2.097.597 2.26.34.13.597.724.597 1.38 0 .758.204 1.152.597 1.152.477 0 .597.593.597 2.956 0 2.098.174 3.13.597 3.554.328.328.603 1.013.61 1.521s.275 1.271.597 1.696c.402.532.584 1.779.584 4 0 1.775.17 3.398.377 3.606.208.208.485 1.632.617 3.164.131 1.532.439 3.462.684 4.287.411 1.386.364 1.586-.616 2.609-.584.609-1.062 1.322-1.062 1.584 0 .263-.533.475-1.194.475q-1.194 0-1.194.597a.6.6 0 0 1-.597.597.6.6 0 0 0-.597.597.6.6 0 0 1-.597.597c-.328 0-.602.314-.608.697s-.543 1.219-1.194 1.857c-.893.876-1.183 1.525-1.183 2.644 0 .951-.214 1.566-.597 1.712-.42.162-.597.817-.597 2.209 0 1.088-.179 2.089-.398 2.225-.219.135-.398.851-.398 1.592 0 .74.179 1.456.398 1.592.219.135.398 1.109.398 2.164 0 1.219.217 2.098.597 2.413.343.284.597 1.152.597 2.039 0 .848.188 1.543.419 1.543s.606.537.835 1.194.577 1.194.775 1.194c.197 0 .359.179.359.398s.358.756.796 1.194.796.68.796.539.439.217.976.796 1.178 1.053 1.424 1.053c1.73 0 2.774 2.273 2.776 6.039.001 3.832-.982 11.543-1.626 12.762-.201.38-.366 2.042-.366 3.694 0 2.302-.139 3.056-.597 3.232-.384.147-.597.763-.597 1.73 0 .848-.259 1.716-.597 1.996-.414.344-.597 1.258-.597 2.991 0 1.851-.154 2.555-.597 2.725-.341.131-.597.725-.597 1.387 0 .637-.269 1.381-.597 1.653-.359.298-.597 1.169-.597 2.189s-.237 1.891-.597 2.189c-.328.273-.597.989-.597 1.592s-.269 1.32-.597 1.592c-.365.304-.597 1.176-.597 2.251 0 1.192-.191 1.828-.597 1.983-.328.126-.597.492-.597.812s-.269.852-.597 1.18c-.328.329-.597 1.007-.597 1.508s-.537 1.917-1.194 3.148-1.194 2.449-1.194 2.707c0 .39-2.727 6.367-4.012 8.794-.202.38-.366.962-.366 1.293a.6.6 0 0 1-.597.603q-.597 0-.597 1.194t-.597 1.194c-.329 0-.597.348-.597.772s-.19.891-.423 1.034-.59.647-.795 1.118c-.568 1.307-1.315 2.414-1.867 2.767-.274.175-.497.657-.497 1.07s-.538 1.34-1.194 2.059c-.657.719-1.194 1.607-1.194 1.972 0 .366-.269.768-.597.894-.329.126-.597.599-.597 1.05s-.269.924-.597 1.05c-.329.126-.598.479-.598.784s-.159.554-.354.554c-.196 0-.471.463-.613 1.029s-.665 1.417-1.161 1.891-1.31 1.533-1.808 2.354c-.497.821-1.048 1.492-1.224 1.492s-.424.314-.553.697c-.332.991-1.167 2.234-1.749 2.607-.274.175-.498.578-.498.895a.59.59 0 0 1-.597.578.6.6 0 0 0-.597.597c0 .328-.184.597-.41.597s-.53.313-.675.696-.766 1.234-1.379 1.891c-.613.656-1.115 1.418-1.116 1.691s-.27.498-.599.498a.6.6 0 0 0-.597.597.6.6 0 0 1-.597.597.6.6 0 0 0-.597.597c0 .328-.167.597-.371.597s-.473.313-.598.696c-.124.383-1.48 2.007-3.012 3.608s-2.785 3.079-2.785 3.284-.269.372-.597.372a.6.6 0 0 0-.597.597.6.6 0 0 1-.597.597.6.6 0 0 0-.597.597.6.6 0 0 1-.597.597.6.6 0 0 0-.597.597.6.6 0 0 1-.597.597.6.6 0 0 0-.597.597.6.6 0 0 1-.597.597.6.6 0 0 0-.597.597.6.6 0 0 1-.597.597.6.6 0 0 0-.597.597.6.6 0 0 1-.597.597.6.6 0 0 0-.597.597.6.6 0 0 1-.597.597.6.6 0 0 0-.597.597.6.6 0 0 1-.597.597c-.329 0-.597.188-.597.417 0 .23-.493.873-1.095 1.431-1.044.967-1.101 1.211-1.229 5.337l-.134 4.323 1.692 1.609c1.26 1.2 2.055 1.629 3.119 1.686 2.309.124 5.392-.128 5.607-.459.109-.168.616-.436 1.127-.596 1.029-.321 13.997-13.026 13.997-13.713 0-.238.269-.433.597-.433a.6.6 0 0 0 .597-.597.6.6 0 0 1 .597-.597.6.6 0 0 0 .597-.597.6.6 0 0 1 .597-.597.6.6 0 0 0 .597-.597c0-.328.184-.597.408-.597.225 0 .578-.448.786-.995s.562-.995.787-.995.407-.269.407-.597a.6.6 0 0 1 .597-.597c.329 0 .597-.171.597-.379s.851-1.253 1.891-2.32c1.04-1.068 2.338-2.535 2.886-3.261.547-.725 1.308-1.651 1.691-2.057.383-.407.697-.853.697-.992s.426-.648.948-1.132 1.057-1.22 1.19-1.638c.132-.417.691-1.243 1.24-1.835.55-.593 1-1.245 1-1.45s.268-.476.597-.602.597-.574.597-.995.268-.869.597-.995.597-.485.597-.796.268-.67.597-.796.597-.493.597-.814c0-.322.537-1.174 1.194-1.893s1.194-1.525 1.194-1.791.537-1.072 1.194-1.791 1.194-1.549 1.194-1.844.269-.805.597-1.134.597-.942.597-1.364.269-.768.597-.768c.371 0 .597-.376.597-.995 0-.547.185-.995.41-.995.226 0 .53-.313.675-.696s.497-.933.783-1.223c.286-.289.52-.871.52-1.293s.176-.768.39-.768.513-.492.661-1.094.69-1.763 1.202-2.58c.512-.816.931-1.824.931-2.239 0-.416.269-.979.597-1.251.329-.273.597-.81.597-1.194s.269-.922.597-1.194c.329-.273.597-1.1.597-1.84 0-.929.184-1.344.597-1.344.374 0 .597-.377.597-1.008 0-.554.269-1.11.597-1.236.37-.142.597-.748.597-1.592s.227-1.45.597-1.592c.329-.126.597-.457.597-.735s.269-.729.597-1.001c.329-.273.597-1.114.597-1.869s.269-1.641.597-1.969c.329-.329.597-.921.597-1.316 0-.396.269-.942.597-1.215.36-.298.597-1.169.597-2.195 0-1.143.196-1.774.597-1.929.329-.126.603-.637.61-1.137.007-.499.276-1.255.597-1.68s.59-1.5.597-2.388c.007-.889.276-1.963.597-2.388.322-.425.584-1.256.584-1.845 0-.59.268-1.586.595-2.213s.596-1.886.597-2.798.186-1.72.409-1.794c.4-.134.763-1.701 1.705-7.364.262-1.571.61-2.989.774-3.151s.304-2.011.311-4.109c.009-2.722.18-4.036.597-4.587.41-.542.585-1.807.585-4.236 0-2.712.129-3.513.597-3.693.409-.157.597-.796.597-2.032 0-1.99.988-3.396 2.388-3.396.438 0 .796-.16.796-.355s.432-.463.96-.595c3.034-.762 7.975-7.052 9.1-11.587.6-2.418.819-8.981.316-9.484-.234-.235-.426-.953-.426-1.597 0-1.125-1.353-4.371-2.2-5.276-.224-.241-1.112-1.36-1.972-2.488s-1.885-2.051-2.278-2.051-.714-.268-.714-.597a.6.6 0 0 0-.597-.597.6.6 0 0 1-.597-.597c0-.393-.394-.597-1.152-.597-.656 0-1.25-.256-1.38-.597-.126-.328-.683-.597-1.237-.597-.63 0-1.007-.223-1.007-.597a.6.6 0 0 0-.597-.597c-.465 0-.597-.532-.597-2.401 0-1.32-.269-3.043-.597-3.829q-.597-1.43-.597-5.48c0-2.228-.171-4.222-.38-4.431s-.552-1.632-.763-3.164c-.445-3.232-1.145-6.157-1.616-6.749-.18-.227-.413-1.479-.516-2.781s-.393-2.437-.645-2.521-.459-.641-.459-1.238c0-.596-.262-1.432-.584-1.857s-.59-1.41-.597-2.189-.276-1.764-.597-2.189-.59-1.154-.597-1.62c-.007-.465-.281-1.069-.61-1.342-.331-.275-.597-1.142-.597-1.95 0-.8-.242-1.808-.537-2.24s-.658-1.277-.804-1.879-.442-1.095-.656-1.095-.391-.605-.391-1.344-.251-1.553-.558-1.808c-.307-.254-.668-.903-.803-1.441-.135-.539-.422-.979-.636-.979s-.391-.608-.391-1.351c0-.833-.228-1.438-.597-1.579-.39-.15-.597-.77-.597-1.791s.207-1.641.597-1.791c.479-.184.597-1.064.597-4.433 0-3.37-.118-4.25-.597-4.434-.34-.13-.597-.724-.597-1.38 0-.758-.204-1.152-.597-1.152-.352 0-.597-.363-.597-.885 0-.948-2.345-3.299-3.728-3.738-.447-.142-1.057-.503-1.356-.802-.943-.943-9.851-.702-11.732.317m-100.567 19.699c-1.799.788-3.169 2.871-3.435 5.226-.267 2.365.297 5.258 1.025 5.258.535 0 3.972 4.637 3.972 5.359 0 .354.355 1.129.789 1.722 1.945 2.657 1.768 11.245-.323 15.68-1.51 3.206-7.95 9.876-9.535 9.876-.221 0-1.424.537-2.672 1.194s-2.485 1.194-2.748 1.194c-1.876 0-4.193 4.745-3.48 7.125 2.467 8.233 14.858 5.63 24.679-5.184 4.63-5.098 4.046-4.707 6.669-4.46 1.289.122 3.238.634 4.333 1.139 1.094.505 2.438 1.047 2.985 1.204s1.744.798 2.659 1.424c.915.627 1.79 1.14 1.946 1.14.468 0 5.304 4.363 8.742 7.887 4.598 4.713 7.883 5.205 11.381 1.707 4.225-4.225.787-10.099-11.689-19.975-2.143-1.696-9.819-5.446-12.243-5.98-5.778-1.275-6.301-1.85-6.34-6.974-.016-2.07-.261-4.21-.569-4.975-.297-.738-.868-2.685-1.269-4.327s-.949-3.254-1.219-3.582-.611-1.074-.756-1.658c-.348-1.395-3.144-5.686-5.267-8.083-1.702-1.922-5.48-2.88-7.635-1.937m-201.58 22.033c1.431.766 6.923 5.602 6.923 6.095 0 .215 7.964 8.227 8.178 8.227.08 0 2.258 2.167 4.84 4.816s6.775 6.911 9.319 9.472c8.591 8.648 8.589 8.655-4.972 22.038-25.432 25.097-25.286 24.967-28.076 24.967-3.952 0-7.597-3.82-7.597-7.961 0-2.349.475-2.951 8.322-10.535 5.739-5.547 16.092-15.869 17.849-17.797 1.87-2.049 2.037-1.825-11.613-15.586-14.929-15.052-14.558-14.603-14.558-17.654 0-5.746 6.015-8.96 11.385-6.082m333.292 51.493c0 .305.268.658.597.784s.597.592.597 1.037.167.809.371.809c.725 0 .869 1.616.253 2.85-.343.689-.624 1.493-.624 1.788s-.25.536-.555.536-.657.268-.783.597-.506.597-.844.597c-.339 0-.96.215-1.381.478-.591.369-.977.371-1.686.008a22 22 0 0 0-2.015-.866c-.672-.243-1.095-.689-1.095-1.154 0-.416-.268-.98-.597-1.252-.337-.28-.597-1.148-.597-1.996 0-.967.213-1.583.597-1.73.329-.126.597-.504.597-.839 0-1.481 1.289-2.134 4.279-2.168 2.217-.026 2.886.095 2.886.521m-234.198 16.256c2.66 2.904 1.776 10.804-1.37 12.238-.663.302-9.068.428-27.421.413-31.353-.027-28.566.443-29.709-5.006-.562-2.676.05-6.459 1.269-7.845 1.187-1.35 2.995-1.433 29.469-1.36l26.399.073zm-128.39 75.904c0 .372-1.531 1.353-2.885 1.849-.383.141-.697.504-.697.806s-.268.551-.597.551-.597.192-.597.426c0 .235-.268.696-.597 1.024s-.597 1.037-.597 1.576c0 .538-.268 1.082-.597 1.208-.482.185-.597 1.1-.597 4.764 0 3.765.102 4.534.597 4.534.374 0 .597.378.597 1.008 0 .554.269 1.11.597 1.236.329.126.597.479.597.784s.269.554.597.554c.329 0 .597.269.597.597 0 .329.192.597.427.597s.695.269 1.023.597c.329.329.924.597 1.322.597.399 0 .828.269.954.597.126.329.683.598 1.237.598s1.01.134 1.013.298.719 1.068 1.592 2.007c.872.94 1.587 1.934 1.587 2.208s.529.938 1.177 1.475c.647.537 1.185 1.289 1.194 1.67.009.382.554 1.172 1.211 1.757.656.586 1.194 1.303 1.194 1.596 0 .292.248.531.55.531s.666.313.806.696c.497 1.355 1.478 2.886 1.85 2.886.207 0 .376.269.376.597s.268.597.597.597.597.142.597.316.716 1.084 1.592 2.023 1.592 1.866 1.592 2.06.537.75 1.194 1.236 1.194 1.075 1.194 1.31.537.871 1.194 1.413c.657.543 1.194 1.212 1.194 1.488s.269.502.597.502a.6.6 0 0 1 .597.597c0 .329.269.597.597.597a.6.6 0 0 1 .597.597c0 .329.269.597.597.597a.6.6 0 0 1 .597.597c0 .329.269.597.597.597.329 0 .597.269.597.597 0 .329.269.597.597.597.329 0 .597.269.597.597 0 .329.269.597.597.597.329 0 .597.269.597.597 0 .329.269.597.597.597.329 0 .597.173.597.385 0 .451 2.673 3.197 3.112 3.197.164 0 .616.538 1.004 1.194.388.657.888 1.195 1.112 1.195.223 0 .943.537 1.6 1.194.656.656 1.449 1.194 1.76 1.194.312 0 .567.23.567.511s.537.828 1.194 1.216 1.194.875 1.194 1.081c0 .207.268.376.597.376s.597.268.597.597.223.604.497.614c.274.009.937.546 1.474 1.194s1.262 1.177 1.611 1.177 1.073.529 1.61 1.177c.537.647 1.181 1.185 1.432 1.194s.558.285.684.614c.126.328.492.597.814.597s1.173.537 1.892 1.194 1.542 1.194 1.828 1.194.624.269.75.597.459.597.741.597.615.269.741.597.598.597 1.05.597.924.269 1.05.597.479.597.784.597.554.176.554.39.482.512 1.072.66c.589.148 1.44.661 1.89 1.14.451.478 1.312.991 1.914 1.139.602.147 1.094.444 1.094.659 0 .214.269.39.597.39.329 0 .597.269.597.597 0 .393.393.597 1.152.597.656 0 1.25.257 1.38.597.126.328.593.597 1.038.597.453 0 .808.262.808.597 0 .393.394.597 1.152.597.656 0 1.25.257 1.38.597.126.329.482.597.79.597s.784.269 1.056.597c.273.329 1.011.597 1.641.597.753 0 1.145.205 1.145.597 0 .329.337.597.748.597s.97.269 1.243.597c.272.329.926.597 1.454.597s1.062.269 1.188.597c.127.332.718.597 1.331.597.607 0 1.326.269 1.599.597.272.329.899.597 1.393.597.493 0 1.12.269 1.393.597.284.343 1.152.597 2.039.597.848 0 1.543.165 1.543.366 0 .547 2.559 2.022 3.508 2.022.455 0 1.627.425 2.604.945.977.519 2.594 1.067 3.594 1.217s1.922.441 2.049.648c.128.206.65.375 1.161.375s1.032.268 1.158.597c.166.431.841.597 2.431.597 1.691 0 2.201.138 2.201.597 0 .392.393.597 1.146.597.63 0 1.368.268 1.64.597.336.404 1.237.597 2.793.597 1.674 0 2.358.161 2.525.597.126.328.585.597 1.019.597.787 0 4.808 3.677 4.808 4.397 0 .208.173.379.384.379s.934.537 1.606 1.194 1.573 1.194 2.003 1.194.783.268.783.597.268.597.597.597.597.171.597.38.671.501 1.492.649 1.689.424 1.93.613c.798.63 7.005 1.528 7.761 1.123.388-.207 1.719-.377 2.959-.377s2.909-.282 3.708-.627c2.666-1.15 4.836-2.338 4.836-2.648 0-.169.233-.307.517-.307.283 0 .955-.53 1.492-1.177.537-.648 1.156-1.191 1.374-1.207.677-.05 2.483-1.832 2.768-2.732.149-.47.438-.854.642-.854s.372-.247.372-.549c0-.301.268-.771.597-1.043.328-.273.597-1.101.597-1.84 0-.93.184-1.344.597-1.344.412 0 .597-.415.597-1.345 0-.739.268-1.567.597-1.84.857-.711.857-8.041 0-8.898-.329-.328-.597-1.242-.597-2.031 0-.907-.22-1.518-.597-1.663-.341-.131-.597-.724-.597-1.38 0-.759-.204-1.152-.597-1.152-.329 0-.597-.336-.597-.747s-.269-.97-.597-1.243c-.329-.272-.597-.67-.597-.884 0-.624-3.925-4.29-4.592-4.29-.334 0-.711-.269-.837-.597s-.459-.597-.741-.597-.615-.269-.741-.597-.637-.603-1.137-.61c-2.195-.03-2.301-.428-2.301-8.645 0-6.367.096-7.612.597-7.804.329-.126.597-.407.597-.625 0-.485 7.126-7.59 7.612-7.59a.36.36 0 0 0 .348-.368c0-.302 2.374-2.975 5.33-6 1.315-1.346 1.888-1.592 3.708-1.594 1.049-.002 2.421-.27 3.048-.597s1.545-.595 2.041-.595c.495 0 1.123-.269 1.396-.597s.9-.597 1.394-.597c.877 0 2.984-2.23 2.984-3.158 0-.233.269-.424.597-.424s.597-.247.597-.548.269-.772.597-1.044c.328-.273.597-1.08.597-1.794 0-.715.268-1.812.595-2.439a5.08 5.08 0 0 0 0-4.668c-.327-.627-.595-1.836-.595-2.687s-.183-1.546-.408-1.546-.578-.448-.786-.996c-.208-.547-.562-.995-.786-.995s-.408-.235-.408-.522c0-.539-2.073-2.264-2.721-2.264-.201 0-.57-.246-.821-.548-1.033-1.246-12.378-1.445-12.378-.218 0 .173-.403.438-.896.588-1.189.362-3.881 3.24-3.881 4.149 0 .396-.268.823-.597.949-.377.145-.597.756-.597 1.664 0 .788-.268 1.702-.597 2.03-.331.332-.597 1.305-.597 2.19 0 .875-.223 1.821-.497 2.101s-1.303 1.432-2.288 2.559-1.905 2.049-2.044 2.049c-.311 0-9.101 8.684-9.101 8.991 0 .364-1.11 1.357-1.515 1.357-.208 0-.601.537-.873 1.194-.301.728-.787 1.194-1.242 1.194-.412 0-.749.134-.75.299s-.628.98-1.393 1.813c-.912.993-1.391 1.906-1.391 2.653 0 .627-.224 1.213-.498 1.304-.376.126-.526 2.669-.616 10.481l-.12 10.315-1.198 1.095c-.66.602-1.367 1.095-1.573 1.095s-.373.269-.373.597q0 .597-1.194.597c-.657 0-1.194.179-1.194.398 0 .516-1.474 1.99-1.99 1.99-.219 0-.398.269-.398.597a.6.6 0 0 1-.597.597.6.6 0 0 0-.597.597c0 .328-.17.597-.377.597s-.61.434-.895.964-.954 1.783-1.485 2.786c-.912 1.72-3.214 2.753-3.214 1.442 0-.209-.671-.501-1.492-.649s-1.672-.404-1.891-.57-1.338-.428-2.487-.583-2.09-.443-2.09-.641c0-.199-.324-.361-.72-.361s-1.067-.263-1.492-.584c-.425-.322-1.425-.59-2.223-.597-.912-.008-1.535-.234-1.679-.61-.131-.341-.725-.597-1.387-.597-.636 0-1.38-.269-1.653-.597-.272-.328-.992-.597-1.598-.597-.613 0-1.205-.265-1.332-.597-.151-.394-.774-.597-1.834-.597-1.16 0-1.604-.165-1.604-.597 0-.328-.336-.597-.747-.597s-.971-.269-1.243-.597-.927-.597-1.454-.597c-.528 0-1.062-.269-1.188-.597s-.639-.597-1.139-.597c-.501 0-1.013-.269-1.139-.597s-.661-.597-1.188-.597-1.182-.269-1.454-.597c-.273-.329-.813-.597-1.201-.597-.387 0-.807-.269-.933-.597-.126-.329-.664-.597-1.194-.597-.531 0-1.068-.269-1.194-.597-.126-.329-.504-.597-.839-.597s-.609-.167-.609-.371c0-.205-.403-.486-.896-.625-1.352-.382-3.483-1.533-3.483-1.881 0-.169-.363-.307-.808-.307s-.912-.269-1.038-.597c-.126-.329-.549-.597-.94-.597s-.814-.269-.94-.597c-.126-.329-.573-.597-.995-.597-.421 0-.869-.269-.995-.597-.126-.329-.503-.597-.838-.597-.336 0-.61-.176-.61-.391s-.448-.503-.995-.64-.995-.499-.995-.804c0-.304-.23-.553-.512-.553s-1.133-.53-1.891-1.178-1.557-1.193-1.776-1.211-.837-.563-1.374-1.21c-.537-.648-1.298-1.178-1.692-1.178s-.715-.147-.715-.327-1.602-1.479-3.561-2.886-3.57-2.782-3.582-3.055-.271-.498-.576-.498-.657-.268-.783-.597-.64-.597-1.142-.597c-.566 0-1.063-.341-1.306-.895-.217-.493-.796-1.073-1.289-1.289s-.895-.539-.895-.718c0-.485-14.217-14.61-14.705-14.61-.231 0-.42-.325-.42-.722s-.537-1.236-1.194-1.865-1.194-1.379-1.194-1.667c0-.287-.268-.522-.597-.522s-.597-.186-.597-.414-.716-1.159-1.592-2.07c-.875-.911-1.592-1.849-1.592-2.085 0-.235-.524-1.002-1.165-1.703-.64-.702-1.279-1.637-1.42-2.079-.14-.442-.422-.804-.626-.804s-.371-.268-.371-.597a.6.6 0 0 0-.597-.597.6.6 0 0 1-.597-.597.6.6 0 0 0-.597-.597c-.389 0-.597-.389-.597-1.118 0-.614-.263-1.465-.584-1.89-.696-.92-.778-2.236-.177-2.837.311-.312.311-.508 0-.7-.238-.147-.433-1.332-.433-2.632 0-1.837-.133-2.365-.597-2.365-.381 0-.597-.382-.597-1.055 0-1.261-3.577-4.915-4.812-4.915-.432 0-.888-.269-1.014-.597-.266-.694-10.095-.908-10.095-.221m71.967 33.554c.11.956-.011 1.095-.951 1.095-1.323 0-2.268-1.092-1.61-1.86.808-.945 2.42-.464 2.561.765m194.7 20.564c0 1.215-.52 1.619-1.691 1.315-1.341-.348-.913-2.476.497-2.476 1.054 0 1.194.137 1.194 1.161m-121.933 36.849c.328.329.942.597 1.365.597.422 0 .767.226.767.503 0 .276.403.679.896.895.492.216 1.072.796 1.288 1.289s.53.895.697.895.303 1.075.303 2.388c0 1.314-.165 2.388-.366 2.388-.202 0-.485.538-.629 1.194-.182.83-.499 1.194-1.039 1.194-.427 0-.88.269-1.006.597-.126.329-.509.598-.852.598s-.957.302-1.366.673c-.699.632-.813.632-1.884 0-.627-.371-1.605-.673-2.173-.673-.653 0-1.033-.22-1.033-.598 0-.328-.179-.597-.398-.597-3.17 0-2.849-8.72.359-9.738.459-.146.835-.432.835-.637 0-.204.339-.371.753-.371.415 0 .857-.268.983-.597s.606-.597 1.066-.597 1.106.269 1.434.597"/><path fill="#fff" d="M237.974 72.832c-.347.203-1.512.567-2.587.807-5.754 1.289-12.324 7.09-15.318 13.525-1.035 2.225-1.175 9.832-1.079 58.642.114 58.653-.037 54.678 2.105 55.421 1.824.633 16.093.812 16.736.21.208-.194 1.632-.766 3.164-1.271 3.797-1.25 8.243-3.969 10.967-6.707a108 108 0 0 1 2.786-2.647 63 63 0 0 0 3.194-3.184c3.834-4.195 7.98-4.952 11.228-2.05 3.197 2.857 3.35 5.411.577 9.594-.615.927-6.167 6.372-6.682 6.553-2.421.849 6.269 11.509 11.562 14.182 2.932 1.481 3.837 1.721 8.219 2.173 5.65.583 7.965 3.019 7.608 8.003-.233 3.257-.992 4.396-3.531 5.298-3.452 1.226-11.178.47-14.969-1.465-1.142-.583-2.251-1.06-2.463-1.06-.532 0-5.332-3.294-8.051-5.524-2.1-1.723-8.765-9.249-9.741-10.999-.648-1.162-1.496-1.167-3.913-.024-1.19.563-2.533 1.024-2.984 1.024-.45 0-1.939.403-3.308.896-3.339 1.201-16.323 1.307-19.567.16-1.121-.396-2.102-.542-2.303-.342-.195.196-.299 11.378-.235 25.39l.113 25.041 1.394 3.052c1.254 2.749 6.026 9.087 6.842 9.087.162 0 .906.537 1.654 1.194s1.533 1.194 1.746 1.194c.212 0 1.263.477 2.335 1.06 2.058 1.12 4.208 1.615 8.617 1.987l2.686.227.009-1.339c.189-27.28-.043-32.026-1.665-34.128-2.495-3.234-.307-9.945 3.523-10.809 5.513-1.243 8.566 1.828 10.107 10.166.242 1.314.595 3.105.783 3.98.189.876.351 7.746.36 15.267.015 11.976.091 13.646.613 13.445 2.985-1.145 8.805-6.223 12.131-10.584 4.183-5.483 5.574-6.615 9.08-7.391 1.688-.373 3.553-.927 4.144-1.23s1.523-.552 2.07-.552c2.115 0 9.41-4.416 13.11-7.937 2.327-2.214 7.424-9.356 7.429-10.409.001-.307.288-1.096.636-1.753 1.342-2.531 1.826-5.494 1.853-11.343.046-10.152-1.478-13.856-9.393-22.825-4.68-5.304-2.56-12.2 3.75-12.2 3.304 0 10.522 7.414 14.142 14.527.446.876 1.096 2.13 1.445 2.786.35.657.953 2 1.34 2.985.905 2.303 1.283 2.786 2.174 2.786 1.044 0 6.457-4.64 8.821-7.561 1.769-2.187 2.461-3.277 4.18-6.583.224-.43.715-1.766 1.092-2.97s.947-2.777 1.267-3.496c1.125-2.528.591-14.883-.762-17.637-.602-1.225-1.095-2.499-1.095-2.832s-.387-1.097-.86-1.698l-.861-1.094-.531 1.013c-.292.557-.873 1.121-1.291 1.254-.419.133-.857.492-.975.798-1.358 3.539-9.187 4.922-12.132 2.144-3.74-3.529-2.712-8.23 2.566-11.733 1.888-1.253 6.919-6.785 6.921-7.611.001-.166.523-1.292 1.161-2.502 2.541-4.822 2.575-17.151.06-22.079-.67-1.313-1.219-2.585-1.22-2.827s-.45-.923-.997-1.513c-.547-.591-.995-1.237-.995-1.437 0-.496-4.26-5.03-5.669-6.033-1.443-1.028-2.187-.478-3.497 2.585-2.292 5.364-9.339 13.866-12.887 15.549-4.301 2.042-9.349-.943-9.667-5.715l-.164-2.45 4.582-4.514c2.52-2.483 4.695-4.966 4.833-5.518.139-.553.475-1.09.747-1.194.272-.105.813-1.237 1.202-2.517a275 275 0 0 1 1.26-4.032c.713-2.196.709-6.351-.008-8.529-.309-.938-.68-2.422-.825-3.297-.145-.876-.599-2.219-1.009-2.986-.41-.766-.946-1.84-1.192-2.388-1.778-3.954-7.698-10.253-10.597-11.277-.517-.182-.94-.468-.94-.636s-.761-.627-1.691-1.021a179 179 0 0 1-3.284-1.438c-1.803-.817-4.421-1.382-8.064-1.741-2.951-.291-3.375.159-2.11 2.234.45.738.819 1.824.819 2.413.001.589.167 1.173.369 1.298 3.872 2.393 2.092 22.804-2.235 25.634-5.191 3.395-10.738-.991-9.733-7.696.998-6.659.838-13.685-.345-15.134-.18-.219-.702-1.353-1.162-2.519-1.28-3.247-5.625-8.335-8.339-9.765-4.633-2.44-5.925-3.029-6.662-3.033-.465-.003-1.607-.274-2.538-.602-1.894-.669-8.944-.812-9.986-.203m20.039 40.014c2.123 2.397 4.919 6.688 5.267 8.083.145.584.486 1.33.756 1.658s.818 1.94 1.219 3.582.972 3.589 1.269 4.327c.308.765.553 2.905.569 4.975.039 5.124.562 5.699 6.34 6.974 2.424.534 10.1 4.284 12.243 5.98 12.476 9.876 15.914 15.75 11.689 19.975-3.498 3.498-6.783 3.006-11.381-1.707-3.438-3.524-8.274-7.887-8.742-7.887-.156 0-1.031-.513-1.946-1.14s-2.112-1.267-2.659-1.424-1.891-.699-2.985-1.204c-1.095-.505-3.044-1.017-4.333-1.139-2.623-.247-2.039-.638-6.669 4.46-9.821 10.814-22.212 13.417-24.679 5.184-.713-2.38 1.604-7.125 3.48-7.125.263 0 1.5-.537 2.748-1.194s2.451-1.194 2.672-1.194c1.585 0 8.025-6.67 9.535-9.876 2.091-4.435 2.268-13.023.323-15.68-.434-.593-.789-1.368-.789-1.722 0-.722-3.437-5.359-3.972-5.359-.728 0-1.292-2.893-1.025-5.258.64-5.659 7.235-7.619 11.07-3.289M41.428 132.617c-2.715 1.415-4.015 3.49-4.015 6.407 0 3.051-.371 2.602 14.558 17.654 13.65 13.761 13.483 13.537 11.613 15.586-1.757 1.928-12.11 12.25-17.849 17.797-7.847 7.584-8.322 8.186-8.322 10.535 0 4.141 3.645 7.961 7.597 7.961 2.79 0 2.644.13 28.076-24.967 13.561-13.383 13.563-13.39 4.972-22.038a1700 1700 0 0 1-9.319-9.472c-2.582-2.649-4.76-4.816-4.84-4.816-.214 0-8.178-8.012-8.178-8.227 0-.493-5.492-5.329-6.923-6.095-2.467-1.322-5.223-1.444-7.37-.325m51.077 66.806c-2.624.782-3.996 4.709-3.113 8.913 1.143 5.449-1.644 4.979 29.709 5.006 18.353.015 26.758-.111 27.421-.413 3.146-1.434 4.03-9.334 1.37-12.238l-1.363-1.487-26.399-.073c-15.119-.042-26.923.083-27.625.292"/></g></svg>
